<?xml version="1.0" encoding="utf-8" standalone="no"?>
<!DOCTYPE svg PUBLIC "-//W3C//DTD SVG 1.1//EN"
  "http://www.w3.org/Graphics/SVG/1.1/DTD/svg11.dtd">
<!-- Created with matplotlib (http://matplotlib.org/) -->
<svg height="216pt" version="1.1" viewBox="0 0 504 216" width="504pt" xmlns="http://www.w3.org/2000/svg" xmlns:xlink="http://www.w3.org/1999/xlink">
 <defs>
  <style type="text/css">
*{stroke-linecap:butt;stroke-linejoin:round;stroke-miterlimit:100000;}
  </style>
 </defs>
 <g id="figure_1">
  <g id="patch_1">
   <path d="M 0 216 
L 504 216 
L 504 0 
L 0 0 
z
" style="fill:#ffffff;"/>
  </g>
  <g id="axes_1">
   <g id="patch_2">
    <path d="M 63 194.4 
L 453.6 194.4 
L 453.6 21.6 
L 63 21.6 
z
" style="fill:#ffffff;"/>
   </g>
   <g id="line2d_1">
    <path clip-path="url(#pc6ec1aeebc)" d="M 63 108 
L 65.736937 71.178254 
L 67.300901 52.880523 
L 68.473874 41.379188 
L 69.646847 32.242642 
L 70.428829 27.629361 
L 71.210811 24.286108 
L 71.992793 22.265715 
L 72.383784 21.7624 
L 72.774775 21.600107 
L 73.165766 21.779477 
L 73.556757 22.299802 
L 73.947748 23.159024 
L 74.72973 25.87924 
L 75.511712 29.89714 
L 76.293694 35.149233 
L 77.466667 45.154917 
L 78.63964 57.391366 
L 80.203604 76.41647 
L 82.54955 108.271705 
L 85.286486 145.067359 
L 86.85045 163.328437 
L 88.023423 174.793489 
L 89.196396 183.887624 
L 89.978378 188.469961 
L 90.76036 191.7807 
L 91.542342 193.767525 
L 91.933333 194.253825 
L 92.324324 194.399039 
L 92.715315 194.202592 
L 93.106306 193.665262 
L 93.497297 192.789174 
L 94.279279 190.035905 
L 95.061261 185.986293 
L 95.843243 180.70433 
L 97.016216 170.658317 
L 98.189189 158.388169 
L 99.753153 139.330473 
L 102.49009 102.027251 
L 104.836036 70.687395 
L 106.4 52.463151 
L 107.572973 41.034494 
L 108.745946 31.982861 
L 109.527928 27.431513 
L 110.30991 24.15332 
L 111.091892 22.200083 
L 111.482883 21.730803 
L 111.873874 21.60267 
L 112.264865 21.81619 
L 112.655856 22.37052 
L 113.046847 23.263466 
L 113.828829 26.049761 
L 114.610811 30.131046 
L 115.392793 35.442827 
L 116.565766 45.529069 
L 117.738739 57.832795 
L 119.302703 76.922894 
L 122.03964 114.243775 
L 124.385586 145.557482 
L 125.94955 163.744713 
L 127.122523 175.136861 
L 128.295495 184.145902 
L 129.077477 188.666216 
L 129.859459 191.911831 
L 130.641441 193.83146 
L 131.032432 194.283715 
L 131.423423 194.394767 
L 131.814414 194.164175 
L 132.205405 193.592851 
L 132.596396 192.683055 
L 133.378378 189.863762 
L 134.16036 185.750846 
L 134.942342 180.4093 
L 136.115315 170.282928 
L 137.288288 157.945746 
L 138.852252 138.823432 
L 141.589189 101.485262 
L 143.935135 70.198012 
L 145.499099 52.047975 
L 146.672072 40.692449 
L 147.845045 31.726088 
L 148.627027 27.236852 
L 149.409009 24.023848 
L 149.8 22.91261 
L 150.190991 22.137846 
L 150.581982 21.70262 
L 150.972973 21.608651 
L 151.363964 21.856313 
L 151.754955 22.444624 
L 152.145946 23.371261 
L 152.927928 26.223524 
L 153.70991 30.368031 
L 154.491892 35.73929 
L 155.664865 45.905692 
L 156.837838 58.276208 
L 158.401802 77.430547 
L 161.138739 114.785638 
L 163.484685 146.04612 
L 165.048649 164.158784 
L 166.221622 175.477576 
L 167.394595 184.401168 
L 168.176577 188.859281 
L 168.958559 192.039643 
L 169.34955 193.13415 
L 169.740541 193.891999 
L 170.131532 194.310192 
L 170.522523 194.387077 
L 170.913514 194.122348 
L 171.304505 193.517054 
L 171.695495 192.573587 
L 172.477477 189.688381 
L 173.259459 185.512324 
L 174.041441 180.111405 
L 175.214414 169.905075 
L 176.387387 157.501347 
L 177.951351 138.315172 
L 180.688288 100.94353 
L 183.034234 69.710124 
L 184.598198 51.635013 
L 185.771171 40.353066 
L 186.944144 31.472331 
L 187.726126 27.045386 
L 188.508108 23.897697 
L 188.899099 22.819931 
L 189.29009 22.079005 
L 189.681081 21.677849 
L 190.072072 21.618049 
L 190.463063 21.899842 
L 190.854054 22.522114 
L 191.245045 23.482402 
L 192.027027 26.400522 
L 192.809009 30.608088 
L 193.590991 36.038612 
L 194.763964 46.284771 
L 195.936937 58.721588 
L 197.500901 77.939409 
L 200.237838 115.327232 
L 202.583784 146.533253 
L 204.147748 164.570633 
L 205.320721 175.815623 
L 206.493694 184.653413 
L 207.275676 189.049147 
L 208.057658 192.16413 
L 208.448649 193.225145 
L 208.83964 193.949141 
L 209.230631 194.333255 
L 209.621622 194.37597 
L 210.012613 194.077115 
L 210.403604 193.437874 
L 210.794595 192.460773 
L 211.576577 189.509768 
L 212.358559 185.270735 
L 213.140541 179.810659 
L 214.313514 169.524773 
L 215.486486 157.05499 
L 217.05045 137.805713 
L 219.787387 100.402078 
L 222.133333 69.223751 
L 223.697297 51.22428 
L 224.87027 40.016359 
L 226.043243 31.221602 
L 226.825225 26.857122 
L 227.607207 23.774874 
L 227.998198 22.730622 
L 228.389189 22.023563 
L 228.78018 21.656494 
L 229.171171 21.630865 
L 229.562162 21.946778 
L 229.953153 22.602984 
L 230.344144 23.596888 
L 231.126126 26.580747 
L 231.908108 30.851206 
L 232.69009 36.340781 
L 233.863063 46.666291 
L 235.036036 59.168917 
L 236.6 78.44946 
L 239.336937 115.868536 
L 241.682883 147.018862 
L 243.246847 164.980245 
L 244.41982 176.150987 
L 245.592793 184.902624 
L 246.374775 189.235806 
L 247.156757 192.285289 
L 247.547748 193.312768 
L 247.938739 194.002882 
L 248.32973 194.352903 
L 248.720721 194.361446 
L 249.111712 194.028478 
L 249.502703 193.355314 
L 249.893694 192.344618 
L 250.675676 189.327932 
L 251.457658 185.02609 
L 252.23964 179.507071 
L 253.412613 169.142038 
L 254.585586 156.606692 
L 256.14955 137.295075 
L 258.886486 99.860927 
L 261.232432 68.738912 
L 262.796396 50.815794 
L 263.969369 39.682342 
L 265.142342 30.97391 
L 265.924324 26.672068 
L 266.706306 23.655382 
L 267.097297 22.644686 
L 267.488288 21.971522 
L 267.879279 21.638554 
L 268.27027 21.647097 
L 268.661261 21.997118 
L 269.052252 22.687232 
L 269.443243 23.714711 
L 270.225225 26.764194 
L 271.007207 31.097376 
L 271.789189 36.645784 
L 272.962162 47.050237 
L 274.135135 59.618178 
L 275.699099 78.96068 
L 278.827027 121.797642 
L 280.781982 147.502927 
L 282.345946 165.387602 
L 283.518919 176.483655 
L 284.691892 185.148794 
L 285.473874 189.419253 
L 286.255856 192.403112 
L 286.646847 193.397016 
L 287.037838 194.053222 
L 287.428829 194.369135 
L 287.81982 194.343506 
L 288.210811 193.976437 
L 288.601802 193.269378 
L 288.992793 192.225126 
L 289.774775 189.142878 
L 290.556757 184.778398 
L 291.338739 179.200655 
L 292.511712 168.756884 
L 293.684685 156.156472 
L 295.248649 136.783278 
L 298.376577 93.934209 
L 300.331532 68.255625 
L 301.895495 50.409569 
L 303.068468 39.351027 
L 304.241441 30.729265 
L 305.023423 26.490232 
L 305.805405 23.539227 
L 306.196396 22.562126 
L 306.587387 21.922885 
L 306.978378 21.62403 
L 307.369369 21.666745 
L 307.76036 22.050859 
L 308.151351 22.774855 
L 308.542342 23.83587 
L 309.324324 26.950853 
L 310.106306 31.346587 
L 310.888288 36.95361 
L 312.061261 47.436595 
L 313.234234 60.069353 
L 314.798198 79.473048 
L 317.926126 122.333802 
L 319.881081 147.98543 
L 321.445045 165.79269 
L 322.618018 176.813613 
L 323.790991 185.391912 
L 324.572973 189.599478 
L 325.354955 192.517598 
L 325.745946 193.477886 
L 326.136937 194.100158 
L 326.527928 194.381951 
L 326.918919 194.322151 
L 327.30991 193.920995 
L 327.700901 193.180069 
L 328.091892 192.102303 
L 328.873874 188.954614 
L 329.655856 184.527669 
L 330.437838 178.891422 
L 331.610811 168.369327 
L 332.783784 155.704347 
L 334.347748 136.270343 
L 337.475676 93.398329 
L 339.430631 67.773911 
L 340.994595 50.005623 
L 342.167568 39.022427 
L 343.340541 30.487676 
L 344.122523 26.311619 
L 344.904505 23.426413 
L 345.295495 22.482946 
L 345.686486 21.877652 
L 346.077477 21.612923 
L 346.468468 21.689808 
L 346.859459 22.108001 
L 347.25045 22.86585 
L 347.641441 23.960357 
L 348.423423 27.140719 
L 349.205405 31.598832 
L 349.987387 37.264246 
L 351.16036 47.825348 
L 352.333333 60.522424 
L 353.897297 79.986546 
L 357.416216 128.189494 
L 359.371171 153.184411 
L 360.935135 170.094308 
L 362.108108 180.26071 
L 362.89009 185.631969 
L 363.672072 189.776476 
L 364.454054 192.628739 
L 364.845045 193.555376 
L 365.236036 194.143687 
L 365.627027 194.391349 
L 366.018018 194.29738 
L 366.409009 193.862154 
L 366.8 193.08739 
L 367.581982 190.532836 
L 368.363964 186.674086 
L 369.145946 181.572118 
L 370.318919 171.769553 
L 371.491892 159.703409 
L 373.055856 140.844079 
L 375.401802 109.086793 
L 378.138739 72.164323 
L 379.702703 53.721792 
L 380.875676 42.076469 
L 382.048649 32.771183 
L 382.830631 28.034587 
L 383.612613 24.561615 
L 384.394595 22.407149 
L 384.785586 21.835825 
L 385.176577 21.605233 
L 385.567568 21.716285 
L 385.958559 22.16854 
L 386.34955 22.960212 
L 387.131532 25.54795 
L 387.913514 29.438607 
L 388.695495 34.570703 
L 389.868468 44.414087 
L 391.041441 56.514532 
L 392.605405 75.407392 
L 394.951351 107.184896 
L 397.688288 144.082732 
L 399.252252 162.489335 
L 400.425225 174.098834 
L 401.598198 183.362072 
L 402.38018 188.067909 
L 403.162162 191.508501 
L 403.944144 193.62948 
L 404.335135 194.18381 
L 404.726126 194.39733 
L 405.117117 194.269197 
L 405.508108 193.799917 
L 405.899099 192.991345 
L 406.681081 190.370448 
L 407.463063 186.447922 
L 408.245045 181.28575 
L 409.418018 171.401644 
L 410.590991 159.267018 
L 412.154955 140.340816 
L 414.500901 108.543407 
L 417.237838 71.67057 
L 418.801802 53.300076 
L 419.974775 41.726518 
L 421.147748 32.505419 
L 421.92973 27.830388 
L 422.711712 24.422209 
L 423.493694 22.334738 
L 423.884685 21.797408 
L 424.275676 21.600961 
L 424.666667 21.746175 
L 425.057658 22.232475 
L 425.448649 23.057938 
L 426.230631 25.711968 
L 427.012613 29.666324 
L 427.794595 34.858521 
L 428.967568 44.783252 
L 430.140541 56.951939 
L 431.704505 75.911296 
L 434.05045 107.728295 
L 436.787387 144.575769 
L 438.351351 162.909972 
L 439.524324 174.447476 
L 440.697297 183.626343 
L 441.479279 188.270522 
L 442.261261 191.646255 
L 443.043243 193.700198 
L 443.434234 194.220523 
L 443.825225 194.399893 
L 444.216216 194.2376 
L 444.607207 193.734285 
L 444.998198 192.891939 
L 445.78018 190.204803 
L 446.562162 186.218654 
L 447.344144 180.996484 
L 448.517117 171.031227 
L 449.69009 158.828599 
L 451.254054 139.836274 
L 453.6 108 
L 453.6 108 
" style="fill:none;stroke:#0000ff;stroke-linecap:square;"/>
   </g>
   <g id="patch_3">
    <path d="M 63 21.6 
L 453.6 21.6 
" style="fill:none;stroke:#000000;stroke-linecap:square;stroke-linejoin:miter;"/>
   </g>
   <g id="patch_4">
    <path d="M 453.6 194.4 
L 453.6 21.6 
" style="fill:none;stroke:#000000;stroke-linecap:square;stroke-linejoin:miter;"/>
   </g>
   <g id="patch_5">
    <path d="M 63 194.4 
L 63 21.6 
" style="fill:none;stroke:#000000;stroke-linecap:square;stroke-linejoin:miter;"/>
   </g>
   <g id="patch_6">
    <path d="M 63 194.4 
L 453.6 194.4 
" style="fill:none;stroke:#000000;stroke-linecap:square;stroke-linejoin:miter;"/>
   </g>
   <g id="matplotlib.axis_1">
    <g id="xtick_1">
     <g id="line2d_2">
      <path clip-path="url(#pc6ec1aeebc)" d="M 63 194.4 
L 63 21.6 
" style="fill:none;stroke:#000000;stroke-dasharray:1.000000,3.000000;stroke-dashoffset:0.0;stroke-width:0.5;"/>
     </g>
     <g id="line2d_3">
      <defs>
       <path d="M 0 0 
L 0 -4 
" id="m085cf80556" style="stroke:#000000;stroke-width:0.5;"/>
      </defs>
      <g>
       <use style="stroke:#000000;stroke-width:0.5;" x="63.0" xlink:href="#m085cf80556" y="194.4"/>
      </g>
     </g>
     <g id="line2d_4">
      <defs>
       <path d="M 0 0 
L 0 4 
" id="ma47cbd9ef9" style="stroke:#000000;stroke-width:0.5;"/>
      </defs>
      <g>
       <use style="stroke:#000000;stroke-width:0.5;" x="63.0" xlink:href="#ma47cbd9ef9" y="21.6"/>
      </g>
     </g>
     <g id="text_1">
      <!-- 0 -->
      <defs>
       <path d="M 31.78125 66.40625 
Q 24.171875 66.40625 20.328125 58.90625 
Q 16.5 51.421875 16.5 36.375 
Q 16.5 21.390625 20.328125 13.890625 
Q 24.171875 6.390625 31.78125 6.390625 
Q 39.453125 6.390625 43.28125 13.890625 
Q 47.125 21.390625 47.125 36.375 
Q 47.125 51.421875 43.28125 58.90625 
Q 39.453125 66.40625 31.78125 66.40625 
M 31.78125 74.21875 
Q 44.046875 74.21875 50.515625 64.515625 
Q 56.984375 54.828125 56.984375 36.375 
Q 56.984375 17.96875 50.515625 8.265625 
Q 44.046875 -1.421875 31.78125 -1.421875 
Q 19.53125 -1.421875 13.0625 8.265625 
Q 6.59375 17.96875 6.59375 36.375 
Q 6.59375 54.828125 13.0625 64.515625 
Q 19.53125 74.21875 31.78125 74.21875 
" id="BitstreamVeraSans-Roman-30"/>
      </defs>
      <g transform="translate(59.1825 207.518125)scale(0.12 -0.12)">
       <use xlink:href="#BitstreamVeraSans-Roman-30"/>
      </g>
     </g>
    </g>
    <g id="xtick_2">
     <g id="line2d_5">
      <path clip-path="url(#pc6ec1aeebc)" d="M 141.12 194.4 
L 141.12 21.6 
" style="fill:none;stroke:#000000;stroke-dasharray:1.000000,3.000000;stroke-dashoffset:0.0;stroke-width:0.5;"/>
     </g>
     <g id="line2d_6">
      <g>
       <use style="stroke:#000000;stroke-width:0.5;" x="141.12" xlink:href="#m085cf80556" y="194.4"/>
      </g>
     </g>
     <g id="line2d_7">
      <g>
       <use style="stroke:#000000;stroke-width:0.5;" x="141.12" xlink:href="#ma47cbd9ef9" y="21.6"/>
      </g>
     </g>
     <g id="text_2">
      <!-- 2 -->
      <defs>
       <path d="M 19.1875 8.296875 
L 53.609375 8.296875 
L 53.609375 0 
L 7.328125 0 
L 7.328125 8.296875 
Q 12.9375 14.109375 22.625 23.890625 
Q 32.328125 33.6875 34.8125 36.53125 
Q 39.546875 41.84375 41.421875 45.53125 
Q 43.3125 49.21875 43.3125 52.78125 
Q 43.3125 58.59375 39.234375 62.25 
Q 35.15625 65.921875 28.609375 65.921875 
Q 23.96875 65.921875 18.8125 64.3125 
Q 13.671875 62.703125 7.8125 59.421875 
L 7.8125 69.390625 
Q 13.765625 71.78125 18.9375 73 
Q 24.125 74.21875 28.421875 74.21875 
Q 39.75 74.21875 46.484375 68.546875 
Q 53.21875 62.890625 53.21875 53.421875 
Q 53.21875 48.921875 51.53125 44.890625 
Q 49.859375 40.875 45.40625 35.40625 
Q 44.1875 33.984375 37.640625 27.21875 
Q 31.109375 20.453125 19.1875 8.296875 
" id="BitstreamVeraSans-Roman-32"/>
      </defs>
      <g transform="translate(137.3025 207.518125)scale(0.12 -0.12)">
       <use xlink:href="#BitstreamVeraSans-Roman-32"/>
      </g>
     </g>
    </g>
    <g id="xtick_3">
     <g id="line2d_8">
      <path clip-path="url(#pc6ec1aeebc)" d="M 219.24 194.4 
L 219.24 21.6 
" style="fill:none;stroke:#000000;stroke-dasharray:1.000000,3.000000;stroke-dashoffset:0.0;stroke-width:0.5;"/>
     </g>
     <g id="line2d_9">
      <g>
       <use style="stroke:#000000;stroke-width:0.5;" x="219.24" xlink:href="#m085cf80556" y="194.4"/>
      </g>
     </g>
     <g id="line2d_10">
      <g>
       <use style="stroke:#000000;stroke-width:0.5;" x="219.24" xlink:href="#ma47cbd9ef9" y="21.6"/>
      </g>
     </g>
     <g id="text_3">
      <!-- 4 -->
      <defs>
       <path d="M 37.796875 64.3125 
L 12.890625 25.390625 
L 37.796875 25.390625 
z
M 35.203125 72.90625 
L 47.609375 72.90625 
L 47.609375 25.390625 
L 58.015625 25.390625 
L 58.015625 17.1875 
L 47.609375 17.1875 
L 47.609375 0 
L 37.796875 0 
L 37.796875 17.1875 
L 4.890625 17.1875 
L 4.890625 26.703125 
z
" id="BitstreamVeraSans-Roman-34"/>
      </defs>
      <g transform="translate(215.4225 207.518125)scale(0.12 -0.12)">
       <use xlink:href="#BitstreamVeraSans-Roman-34"/>
      </g>
     </g>
    </g>
    <g id="xtick_4">
     <g id="line2d_11">
      <path clip-path="url(#pc6ec1aeebc)" d="M 297.36 194.4 
L 297.36 21.6 
" style="fill:none;stroke:#000000;stroke-dasharray:1.000000,3.000000;stroke-dashoffset:0.0;stroke-width:0.5;"/>
     </g>
     <g id="line2d_12">
      <g>
       <use style="stroke:#000000;stroke-width:0.5;" x="297.36" xlink:href="#m085cf80556" y="194.4"/>
      </g>
     </g>
     <g id="line2d_13">
      <g>
       <use style="stroke:#000000;stroke-width:0.5;" x="297.36" xlink:href="#ma47cbd9ef9" y="21.6"/>
      </g>
     </g>
     <g id="text_4">
      <!-- 6 -->
      <defs>
       <path d="M 33.015625 40.375 
Q 26.375 40.375 22.484375 35.828125 
Q 18.609375 31.296875 18.609375 23.390625 
Q 18.609375 15.53125 22.484375 10.953125 
Q 26.375 6.390625 33.015625 6.390625 
Q 39.65625 6.390625 43.53125 10.953125 
Q 47.40625 15.53125 47.40625 23.390625 
Q 47.40625 31.296875 43.53125 35.828125 
Q 39.65625 40.375 33.015625 40.375 
M 52.59375 71.296875 
L 52.59375 62.3125 
Q 48.875 64.0625 45.09375 64.984375 
Q 41.3125 65.921875 37.59375 65.921875 
Q 27.828125 65.921875 22.671875 59.328125 
Q 17.53125 52.734375 16.796875 39.40625 
Q 19.671875 43.65625 24.015625 45.921875 
Q 28.375 48.1875 33.59375 48.1875 
Q 44.578125 48.1875 50.953125 41.515625 
Q 57.328125 34.859375 57.328125 23.390625 
Q 57.328125 12.15625 50.6875 5.359375 
Q 44.046875 -1.421875 33.015625 -1.421875 
Q 20.359375 -1.421875 13.671875 8.265625 
Q 6.984375 17.96875 6.984375 36.375 
Q 6.984375 53.65625 15.1875 63.9375 
Q 23.390625 74.21875 37.203125 74.21875 
Q 40.921875 74.21875 44.703125 73.484375 
Q 48.484375 72.75 52.59375 71.296875 
" id="BitstreamVeraSans-Roman-36"/>
      </defs>
      <g transform="translate(293.5425 207.518125)scale(0.12 -0.12)">
       <use xlink:href="#BitstreamVeraSans-Roman-36"/>
      </g>
     </g>
    </g>
    <g id="xtick_5">
     <g id="line2d_14">
      <path clip-path="url(#pc6ec1aeebc)" d="M 375.48 194.4 
L 375.48 21.6 
" style="fill:none;stroke:#000000;stroke-dasharray:1.000000,3.000000;stroke-dashoffset:0.0;stroke-width:0.5;"/>
     </g>
     <g id="line2d_15">
      <g>
       <use style="stroke:#000000;stroke-width:0.5;" x="375.48" xlink:href="#m085cf80556" y="194.4"/>
      </g>
     </g>
     <g id="line2d_16">
      <g>
       <use style="stroke:#000000;stroke-width:0.5;" x="375.48" xlink:href="#ma47cbd9ef9" y="21.6"/>
      </g>
     </g>
     <g id="text_5">
      <!-- 8 -->
      <defs>
       <path d="M 31.78125 34.625 
Q 24.75 34.625 20.71875 30.859375 
Q 16.703125 27.09375 16.703125 20.515625 
Q 16.703125 13.921875 20.71875 10.15625 
Q 24.75 6.390625 31.78125 6.390625 
Q 38.8125 6.390625 42.859375 10.171875 
Q 46.921875 13.96875 46.921875 20.515625 
Q 46.921875 27.09375 42.890625 30.859375 
Q 38.875 34.625 31.78125 34.625 
M 21.921875 38.8125 
Q 15.578125 40.375 12.03125 44.71875 
Q 8.5 49.078125 8.5 55.328125 
Q 8.5 64.0625 14.71875 69.140625 
Q 20.953125 74.21875 31.78125 74.21875 
Q 42.671875 74.21875 48.875 69.140625 
Q 55.078125 64.0625 55.078125 55.328125 
Q 55.078125 49.078125 51.53125 44.71875 
Q 48 40.375 41.703125 38.8125 
Q 48.828125 37.15625 52.796875 32.3125 
Q 56.78125 27.484375 56.78125 20.515625 
Q 56.78125 9.90625 50.3125 4.234375 
Q 43.84375 -1.421875 31.78125 -1.421875 
Q 19.734375 -1.421875 13.25 4.234375 
Q 6.78125 9.90625 6.78125 20.515625 
Q 6.78125 27.484375 10.78125 32.3125 
Q 14.796875 37.15625 21.921875 38.8125 
M 18.3125 54.390625 
Q 18.3125 48.734375 21.84375 45.5625 
Q 25.390625 42.390625 31.78125 42.390625 
Q 38.140625 42.390625 41.71875 45.5625 
Q 45.3125 48.734375 45.3125 54.390625 
Q 45.3125 60.0625 41.71875 63.234375 
Q 38.140625 66.40625 31.78125 66.40625 
Q 25.390625 66.40625 21.84375 63.234375 
Q 18.3125 60.0625 18.3125 54.390625 
" id="BitstreamVeraSans-Roman-38"/>
      </defs>
      <g transform="translate(371.6625 207.518125)scale(0.12 -0.12)">
       <use xlink:href="#BitstreamVeraSans-Roman-38"/>
      </g>
     </g>
    </g>
    <g id="xtick_6">
     <g id="line2d_17">
      <path clip-path="url(#pc6ec1aeebc)" d="M 453.6 194.4 
L 453.6 21.6 
" style="fill:none;stroke:#000000;stroke-dasharray:1.000000,3.000000;stroke-dashoffset:0.0;stroke-width:0.5;"/>
     </g>
     <g id="line2d_18">
      <g>
       <use style="stroke:#000000;stroke-width:0.5;" x="453.6" xlink:href="#m085cf80556" y="194.4"/>
      </g>
     </g>
     <g id="line2d_19">
      <g>
       <use style="stroke:#000000;stroke-width:0.5;" x="453.6" xlink:href="#ma47cbd9ef9" y="21.6"/>
      </g>
     </g>
     <g id="text_6">
      <!-- 10 -->
      <defs>
       <path d="M 12.40625 8.296875 
L 28.515625 8.296875 
L 28.515625 63.921875 
L 10.984375 60.40625 
L 10.984375 69.390625 
L 28.421875 72.90625 
L 38.28125 72.90625 
L 38.28125 8.296875 
L 54.390625 8.296875 
L 54.390625 0 
L 12.40625 0 
z
" id="BitstreamVeraSans-Roman-31"/>
      </defs>
      <g transform="translate(445.965 207.518125)scale(0.12 -0.12)">
       <use xlink:href="#BitstreamVeraSans-Roman-31"/>
       <use x="63.623046875" xlink:href="#BitstreamVeraSans-Roman-30"/>
      </g>
     </g>
    </g>
   </g>
   <g id="matplotlib.axis_2">
    <g id="ytick_1">
     <g id="line2d_20">
      <path clip-path="url(#pc6ec1aeebc)" d="M 63 194.4 
L 453.6 194.4 
" style="fill:none;stroke:#000000;stroke-dasharray:1.000000,3.000000;stroke-dashoffset:0.0;stroke-width:0.5;"/>
     </g>
     <g id="line2d_21">
      <defs>
       <path d="M 0 0 
L 4 0 
" id="mb224e193ac" style="stroke:#000000;stroke-width:0.5;"/>
      </defs>
      <g>
       <use style="stroke:#000000;stroke-width:0.5;" x="63.0" xlink:href="#mb224e193ac" y="194.4"/>
      </g>
     </g>
     <g id="line2d_22">
      <defs>
       <path d="M 0 0 
L -4 0 
" id="me9171a2c00" style="stroke:#000000;stroke-width:0.5;"/>
      </defs>
      <g>
       <use style="stroke:#000000;stroke-width:0.5;" x="453.6" xlink:href="#me9171a2c00" y="194.4"/>
      </g>
     </g>
     <g id="text_7">
      <!-- −1.0 -->
      <defs>
       <path d="M 10.59375 35.5 
L 73.1875 35.5 
L 73.1875 27.203125 
L 10.59375 27.203125 
z
" id="BitstreamVeraSans-Roman-2212"/>
       <path d="M 10.6875 12.40625 
L 21 12.40625 
L 21 0 
L 10.6875 0 
z
" id="BitstreamVeraSans-Roman-2e"/>
      </defs>
      <g transform="translate(29.860625 197.71125)scale(0.12 -0.12)">
       <use xlink:href="#BitstreamVeraSans-Roman-2212"/>
       <use x="83.7890625" xlink:href="#BitstreamVeraSans-Roman-31"/>
       <use x="147.412109375" xlink:href="#BitstreamVeraSans-Roman-2e"/>
       <use x="179.19921875" xlink:href="#BitstreamVeraSans-Roman-30"/>
      </g>
     </g>
    </g>
    <g id="ytick_2">
     <g id="line2d_23">
      <path clip-path="url(#pc6ec1aeebc)" d="M 63 151.2 
L 453.6 151.2 
" style="fill:none;stroke:#000000;stroke-dasharray:1.000000,3.000000;stroke-dashoffset:0.0;stroke-width:0.5;"/>
     </g>
     <g id="line2d_24">
      <g>
       <use style="stroke:#000000;stroke-width:0.5;" x="63.0" xlink:href="#mb224e193ac" y="151.2"/>
      </g>
     </g>
     <g id="line2d_25">
      <g>
       <use style="stroke:#000000;stroke-width:0.5;" x="453.6" xlink:href="#me9171a2c00" y="151.2"/>
      </g>
     </g>
     <g id="text_8">
      <!-- −0.5 -->
      <defs>
       <path d="M 10.796875 72.90625 
L 49.515625 72.90625 
L 49.515625 64.59375 
L 19.828125 64.59375 
L 19.828125 46.734375 
Q 21.96875 47.46875 24.109375 47.828125 
Q 26.265625 48.1875 28.421875 48.1875 
Q 40.625 48.1875 47.75 41.5 
Q 54.890625 34.8125 54.890625 23.390625 
Q 54.890625 11.625 47.5625 5.09375 
Q 40.234375 -1.421875 26.90625 -1.421875 
Q 22.3125 -1.421875 17.546875 -0.640625 
Q 12.796875 0.140625 7.71875 1.703125 
L 7.71875 11.625 
Q 12.109375 9.234375 16.796875 8.0625 
Q 21.484375 6.890625 26.703125 6.890625 
Q 35.15625 6.890625 40.078125 11.328125 
Q 45.015625 15.765625 45.015625 23.390625 
Q 45.015625 31 40.078125 35.4375 
Q 35.15625 39.890625 26.703125 39.890625 
Q 22.75 39.890625 18.8125 39.015625 
Q 14.890625 38.140625 10.796875 36.28125 
z
" id="BitstreamVeraSans-Roman-35"/>
      </defs>
      <g transform="translate(29.860625 154.51125)scale(0.12 -0.12)">
       <use xlink:href="#BitstreamVeraSans-Roman-2212"/>
       <use x="83.7890625" xlink:href="#BitstreamVeraSans-Roman-30"/>
       <use x="147.412109375" xlink:href="#BitstreamVeraSans-Roman-2e"/>
       <use x="179.19921875" xlink:href="#BitstreamVeraSans-Roman-35"/>
      </g>
     </g>
    </g>
    <g id="ytick_3">
     <g id="line2d_26">
      <path clip-path="url(#pc6ec1aeebc)" d="M 63 108 
L 453.6 108 
" style="fill:none;stroke:#000000;stroke-dasharray:1.000000,3.000000;stroke-dashoffset:0.0;stroke-width:0.5;"/>
     </g>
     <g id="line2d_27">
      <g>
       <use style="stroke:#000000;stroke-width:0.5;" x="63.0" xlink:href="#mb224e193ac" y="108.0"/>
      </g>
     </g>
     <g id="line2d_28">
      <g>
       <use style="stroke:#000000;stroke-width:0.5;" x="453.6" xlink:href="#me9171a2c00" y="108.0"/>
      </g>
     </g>
     <g id="text_9">
      <!-- 0.0 -->
      <g transform="translate(39.91625 111.31125)scale(0.12 -0.12)">
       <use xlink:href="#BitstreamVeraSans-Roman-30"/>
       <use x="63.623046875" xlink:href="#BitstreamVeraSans-Roman-2e"/>
       <use x="95.41015625" xlink:href="#BitstreamVeraSans-Roman-30"/>
      </g>
     </g>
    </g>
    <g id="ytick_4">
     <g id="line2d_29">
      <path clip-path="url(#pc6ec1aeebc)" d="M 63 64.8 
L 453.6 64.8 
" style="fill:none;stroke:#000000;stroke-dasharray:1.000000,3.000000;stroke-dashoffset:0.0;stroke-width:0.5;"/>
     </g>
     <g id="line2d_30">
      <g>
       <use style="stroke:#000000;stroke-width:0.5;" x="63.0" xlink:href="#mb224e193ac" y="64.8"/>
      </g>
     </g>
     <g id="line2d_31">
      <g>
       <use style="stroke:#000000;stroke-width:0.5;" x="453.6" xlink:href="#me9171a2c00" y="64.8"/>
      </g>
     </g>
     <g id="text_10">
      <!-- 0.5 -->
      <g transform="translate(39.91625 68.11125)scale(0.12 -0.12)">
       <use xlink:href="#BitstreamVeraSans-Roman-30"/>
       <use x="63.623046875" xlink:href="#BitstreamVeraSans-Roman-2e"/>
       <use x="95.41015625" xlink:href="#BitstreamVeraSans-Roman-35"/>
      </g>
     </g>
    </g>
    <g id="ytick_5">
     <g id="line2d_32">
      <path clip-path="url(#pc6ec1aeebc)" d="M 63 21.6 
L 453.6 21.6 
" style="fill:none;stroke:#000000;stroke-dasharray:1.000000,3.000000;stroke-dashoffset:0.0;stroke-width:0.5;"/>
     </g>
     <g id="line2d_33">
      <g>
       <use style="stroke:#000000;stroke-width:0.5;" x="63.0" xlink:href="#mb224e193ac" y="21.6"/>
      </g>
     </g>
     <g id="line2d_34">
      <g>
       <use style="stroke:#000000;stroke-width:0.5;" x="453.6" xlink:href="#me9171a2c00" y="21.6"/>
      </g>
     </g>
     <g id="text_11">
      <!-- 1.0 -->
      <g transform="translate(39.91625 24.91125)scale(0.12 -0.12)">
       <use xlink:href="#BitstreamVeraSans-Roman-31"/>
       <use x="63.623046875" xlink:href="#BitstreamVeraSans-Roman-2e"/>
       <use x="95.41015625" xlink:href="#BitstreamVeraSans-Roman-30"/>
      </g>
     </g>
    </g>
   </g>
  </g>
 </g>
 <defs>
  <clipPath id="pc6ec1aeebc">
   <rect height="172.8" width="390.6" x="63.0" y="21.6"/>
  </clipPath>
 </defs>
</svg>
